<svg xmlns="http://www.w3.org/2000/svg" width="1920" height="540" viewBox="0 0 1920 540"><defs><style>@font-face{font-family:fgs;src:url(../../fonts/fg-sans-500.woff2)}@font-face{font-family:fgb;src:url(../../fonts/fg-sans-700.woff2)}@font-face{font-family:fgt;src:url(../../fonts/fg-serif-900.woff2)}.t{font:13px fgs;fill:#D2C8B4;paint-order:stroke;stroke:#1A1008;stroke-width:1.5px}.h{font:18px fgb;fill:#D2C8B4;paint-order:stroke;stroke:#1A1008;stroke-width:1.5px}.big{font:28px fgt;fill:#D2C8B4;paint-order:stroke;stroke:#1A1008;stroke-width:1.5px}.note{font:11px fgs;fill:#D2C8B4}</style></defs><image href="FG_CONCEPT_03_NIGHT_CLIMAX_V002.png" x="0" width="960" height="540" preserveAspectRatio="xMidYMid slice"/><image href="FG_CONCEPT_03_NIGHT_CLIMAX_V002.png" x="960" width="960" height="540" preserveAspectRatio="xMidYMid slice"/><g transform="translate(0 0)"><rect x="16" y="16" width="250" height="118" rx="16" fill="#1E2A4A" stroke="#FFB547" stroke-width="5"/><rect x="690" y="330" width="250" height="178" rx="18" fill="#7A5234" stroke="#FFB547" stroke-width="5"/><rect x="310" y="14" width="340" height="58" rx="20" fill="#7A5234" stroke="#FFB547" stroke-width="5"/><text x="480" y="50" text-anchor="middle" class="h">第 7 波 · 00:38</text></g><rect x="960" width="960" height="540" fill="#1E2A4A" opacity=".15"/><text x="1440" y="35" text-anchor="middle" class="big">第 7 波　00:38</text><text x="1862" y="42" text-anchor="end" class="h">¤ 1 260</text><g transform="translate(980 455)"><path d="M0 0H244L256 12V66H0Z" fill="#1E2A4A" opacity=".58"/><path d="M16 14H220V30H16Z" fill="#1A1008"/><path d="M17 15H182V29H17Z" fill="#A8483A"/><path d="M17 15H194V18H17Z" fill="#D2C8B4" opacity=".35"/><text x="16" y="52" class="t">生命 786 / 900　圣火稳定</text></g><g transform="translate(1310 474)"><path d="M0 0H260V54H0Z" fill="#1E2A4A" opacity=".55"/><text x="22" y="34" class="h">1　2　3　4　5</text></g><text x="1700" y="418" class="t">霜铠督军　重甲</text><path d="M960 0V540" stroke="#D2C8B4"/><text x="24" y="520" class="h">现在：厚框、贴纸化、遮挡多</text><text x="984" y="520" class="h">升级后：常驻去框、场景同光、中央安全</text></svg>