<svg xmlns="http://www.w3.org/2000/svg" width="1920" height="900" viewBox="0 0 1920 900"><defs><style>@font-face{font-family:fgs;src:url(../../fonts/fg-sans-500.woff2)}@font-face{font-family:fgb;src:url(../../fonts/fg-sans-700.woff2)}@font-face{font-family:fgt;src:url(../../fonts/fg-serif-900.woff2)}.t{font:13px fgs;fill:#D2C8B4;paint-order:stroke;stroke:#1A1008;stroke-width:1.5px}.h{font:18px fgb;fill:#D2C8B4;paint-order:stroke;stroke:#1A1008;stroke-width:1.5px}.big{font:28px fgt;fill:#D2C8B4;paint-order:stroke;stroke:#1A1008;stroke-width:1.5px}.note{font:11px fgs;fill:#D2C8B4}</style></defs><rect width="1920" height="900" fill="#1E2A4A"/><text x="480" y="48" text-anchor="middle" class="big">上一轮：同形换色与贴纸框</text><text x="1440" y="48" text-anchor="middle" class="big">这一轮：炉木夜釉正式套件</text><image href="../../assets/ui/explore/A/components.svg" x="0" y="70" width="960" height="830" preserveAspectRatio="xMidYMin meet"/><image href="../../assets/ui/kit/panel-menu.svg" x="1000" y="82" width="880" height="250" preserveAspectRatio="none"/><image href="../../assets/ui/kit/card-common.svg" x="1000" y="360" width="205" height="228"/><image href="../../assets/ui/kit/card-fine.svg" x="1225" y="360" width="205" height="228"/><image href="../../assets/ui/kit/card-epic.svg" x="1450" y="360" width="205" height="228"/><image href="../../assets/ui/kit/card-legendary.svg" x="1675" y="360" width="205" height="228"/><image href="../../assets/ui/icons/hud/holy-fire-48.svg" x="1010" y="640" width="56" height="56"/><image href="../../assets/ui/icons/hud/health-48.svg" x="1082" y="640" width="56" height="56"/><image href="../../assets/ui/icons/hud/mana-48.svg" x="1154" y="640" width="56" height="56"/><image href="../../assets/ui/icons/hud/coin-48.svg" x="1226" y="640" width="56" height="56"/><image href="../../assets/ui/icons/stats/attack-48.svg" x="1298" y="640" width="56" height="56"/><image href="../../assets/ui/icons/stats/armor-48.svg" x="1370" y="640" width="56" height="56"/><image href="../../assets/ui/icons/stats/critical-48.svg" x="1442" y="640" width="56" height="56"/><image href="../../assets/ui/icons/stats/speed-48.svg" x="1514" y="640" width="56" height="56"/><image href="../../assets/ui/icons/towers/sentry-48.svg" x="1586" y="640" width="56" height="56"/><image href="../../assets/ui/icons/stats/boss-skull-48.svg" x="1658" y="640" width="56" height="56"/><image href="../../assets/ui/icons/results/chest-48.svg" x="1730" y="640" width="56" height="56"/><image href="../../assets/ui/icons/settings/settings-48.svg" x="1802" y="640" width="56" height="56"/><image href="../../assets/ui/kit/button-default.svg" x="1010" y="735" width="260" height="63"/><image href="../../assets/ui/kit/button-hover.svg" x="1300" y="735" width="260" height="63"/><image href="../../assets/ui/kit/button-pressed.svg" x="1590" y="735" width="260" height="63"/><image href="../../assets/ui/kit/button-disabled.svg" x="1010" y="807" width="260" height="63"/><image href="../../assets/ui/kit/button-focus.svg" x="1300" y="807" width="260" height="63"/><path d="M960 0V900" stroke="#C9A27A"/></svg>